<?xml version="1.0" standalone="no"?>
<!DOCTYPE svg PUBLIC "-//W3C//DTD SVG 20010904//EN"
 "http://www.w3.org/TR/2001/REC-SVG-20010904/DTD/svg10.dtd">
<svg version="1.0" xmlns="http://www.w3.org/2000/svg"
 width="1140.000000pt" height="2280.000000pt" viewBox="0 0 1140.000000 2280.000000"
 preserveAspectRatio="xMidYMid meet">

<g transform="translate(0.000000,2280.000000) scale(0.100000,-0.100000)"
fill="#faebd7" stroke="none">
<path d="M5495 21810 c-45 -10 -122 -33 -172 -52 -289 -109 -410 -277 -473
-653 -8 -53 -30 -314 -30 -372 0 -21 -3 -22 -62 -17 -58 6 -65 4 -87 -20 -30
-32 -60 -163 -61 -261 0 -109 22 -176 106 -315 79 -131 135 -194 185 -205 27
-6 29 -10 29 -49 0 -76 21 -159 62 -250 l41 -89 -28 -86 c-38 -118 -57 -151
-106 -196 -40 -36 -368 -202 -704 -357 -243 -112 -454 -241 -598 -367 -40 -34
-92 -69 -125 -82 -105 -41 -170 -78 -227 -129 -32 -27 -106 -74 -165 -105
-209 -106 -260 -168 -340 -413 -55 -166 -115 -396 -152 -582 -18 -90 -23 -148
-23 -265 1 -143 2 -157 43 -314 23 -91 42 -181 42 -202 0 -21 -20 -102 -45
-181 -25 -79 -52 -168 -60 -198 -20 -81 -51 -312 -80 -600 -29 -290 -40 -341
-90 -419 -50 -78 -137 -259 -173 -361 -47 -133 -62 -248 -62 -472 l0 -197 -36
-87 c-20 -48 -47 -137 -62 -198 -23 -98 -26 -132 -25 -296 0 -204 8 -308 58
-765 50 -452 56 -575 49 -955 -8 -370 10 -833 51 -1370 3 -36 10 -130 15 -210
20 -271 31 -319 160 -665 45 -121 87 -235 93 -253 9 -29 14 -32 36 -27 41 10
94 58 120 108 l23 47 29 -21 28 -20 17 26 c21 32 88 187 115 267 25 74 22 144
-9 204 -11 22 -56 78 -100 126 -80 88 -112 147 -112 208 0 15 -9 56 -20 90
-26 82 -25 116 6 208 34 99 148 328 167 335 34 13 60 -56 87 -228 22 -145 69
-236 147 -285 86 -55 143 -30 170 75 21 84 29 418 14 587 -20 217 -47 291
-164 450 -74 100 -102 152 -126 230 -28 94 -35 195 -22 323 23 216 59 350 178
669 143 385 274 762 295 851 18 75 22 122 22 280 1 113 -5 232 -13 294 -13 95
-13 106 2 130 39 61 78 151 87 201 5 30 14 150 19 265 8 168 15 231 36 315 46
189 95 325 167 457 38 70 111 213 163 318 76 153 95 184 99 165 3 -14 10 -47
16 -75 20 -98 74 -263 161 -495 48 -129 95 -264 103 -300 13 -54 16 -154 16
-580 l1 -515 -96 -190 c-117 -233 -140 -312 -132 -455 3 -52 17 -143 31 -202
14 -59 26 -124 26 -144 0 -20 -20 -114 -45 -208 -91 -350 -114 -504 -120 -808
-4 -251 -4 -248 -130 -778 -123 -518 -159 -680 -190 -871 -54 -333 -60 -431
-59 -909 1 -612 30 -978 160 -2035 33 -261 35 -304 29 -435 -9 -194 -9 -205 0
-277 9 -76 -5 -155 -50 -278 -192 -519 -224 -654 -232 -996 -9 -336 8 -477
171 -1384 65 -365 92 -646 83 -855 -10 -202 -49 -355 -133 -520 -23 -47 -46
-98 -49 -115 -15 -69 -29 -87 -104 -137 -42 -28 -157 -113 -257 -188 -99 -76
-191 -143 -205 -151 -13 -7 -50 -16 -81 -20 -113 -14 -168 -66 -168 -162 0
-64 19 -97 72 -126 51 -29 55 -34 69 -88 22 -83 63 -115 232 -182 83 -33 193
-74 242 -92 119 -41 160 -63 290 -152 199 -135 264 -157 466 -157 187 0 359
46 443 120 77 68 110 176 109 355 -1 152 -46 384 -130 670 -47 159 -48 217 -4
311 18 40 33 89 34 110 1 22 -12 107 -28 189 -26 135 -29 170 -29 350 0 427
84 752 369 1425 135 318 186 454 231 619 67 246 63 280 -107 886 -47 167 -69
259 -65 278 3 16 30 68 60 117 118 190 249 486 286 644 31 132 79 564 130
1156 59 698 89 890 238 1540 27 118 69 302 93 408 24 105 47 192 51 192 4 0 8
-9 8 -20 0 -21 40 -207 139 -650 153 -687 174 -825 246 -1645 70 -802 79 -882
126 -1038 49 -166 183 -452 287 -617 53 -83 53 -101 1 -288 -164 -592 -185
-686 -175 -763 8 -56 97 -356 156 -524 23 -66 101 -264 172 -440 209 -511 256
-664 299 -960 19 -130 21 -179 16 -365 -4 -179 -10 -235 -31 -335 -34 -160
-33 -185 9 -269 46 -91 46 -138 0 -288 -95 -315 -129 -495 -130 -693 0 -261
45 -350 212 -413 119 -45 217 -62 351 -62 184 -1 285 34 437 149 106 81 165
111 320 164 313 107 416 162 444 237 6 16 16 44 22 61 8 19 26 37 49 49 61 31
80 63 80 134 0 106 -42 148 -163 165 -77 11 -99 21 -152 71 -79 74 -202 167
-317 238 -128 80 -164 114 -174 169 -4 20 -31 86 -60 147 -103 217 -128 334
-127 611 0 244 24 428 123 955 94 505 120 707 127 1006 6 244 -2 377 -33 556
-21 124 -53 228 -155 510 l-90 247 -4 268 c-2 147 0 297 5 333 5 36 20 153 34
260 43 332 125 1189 144 1505 4 66 7 323 7 570 -1 369 -4 475 -18 590 -41 321
-93 577 -252 1235 -90 372 -96 410 -105 690 -11 310 -45 538 -125 819 -37 131
-45 233 -24 288 6 15 20 78 30 138 34 193 14 286 -124 564 l-92 184 0 516 c0
595 -5 557 107 847 84 220 153 433 174 537 10 48 21 87 24 87 3 0 18 -31 34
-68 16 -37 89 -184 162 -327 73 -144 148 -306 167 -361 65 -186 97 -386 97
-608 0 -143 19 -229 71 -325 46 -84 45 -80 19 -291 -12 -102 -12 -230 1 -331
23 -179 57 -285 290 -917 66 -178 133 -375 149 -438 34 -130 60 -312 60 -414
0 -162 -58 -322 -164 -452 -123 -152 -161 -314 -160 -693 0 -217 17 -351 50
-402 34 -54 121 -38 184 35 64 71 79 111 110 279 28 149 47 203 73 203 23 0
67 -84 137 -262 l70 -178 -30 -137 c-17 -76 -33 -146 -36 -155 -3 -10 -44 -62
-91 -115 -107 -123 -123 -153 -123 -238 0 -68 36 -176 102 -308 33 -67 46 -75
82 -52 21 14 26 15 26 3 0 -8 14 -36 30 -62 22 -34 43 -53 76 -68 25 -11 50
-16 54 -11 9 10 193 518 214 593 29 103 56 397 86 925 5 105 13 222 16 260 3
39 9 358 14 710 8 596 15 740 40 920 5 39 19 156 30 260 11 105 25 237 32 295
18 153 15 396 -6 510 -9 52 -35 148 -57 215 -46 136 -58 226 -59 437 0 147
-13 230 -57 363 -33 103 -106 257 -172 364 -28 47 -56 101 -61 120 -6 20 -19
158 -30 306 -31 401 -56 547 -131 765 -40 113 -44 134 -44 220 0 70 6 112 22
162 60 185 69 384 27 600 -63 326 -166 677 -230 784 -61 102 -112 144 -262
218 -48 24 -114 65 -147 90 -94 73 -154 110 -230 139 -52 20 -91 45 -150 98
-150 132 -315 231 -650 387 -389 182 -584 281 -623 317 -57 51 -99 118 -122
193 -27 87 -25 110 14 189 37 75 56 149 56 223 0 50 17 80 46 80 30 0 97 78
169 197 97 161 109 195 108 308 0 99 -32 246 -59 276 -24 26 -65 32 -113 16
l-41 -15 -1 97 c-2 298 -67 578 -167 723 -93 135 -258 229 -507 289 -105 25
-288 25 -400 -1z m337 -55 c184 -32 365 -112 455 -202 148 -148 212 -397 213
-831 l0 -203 68 71 c94 98 107 94 136 -34 19 -81 20 -187 2 -238 -14 -39 -141
-256 -176 -300 -31 -40 -54 -35 -90 17 -17 25 -35 45 -39 45 -5 0 -11 -78 -13
-172 -4 -139 -8 -182 -23 -220 -11 -27 -22 -48 -26 -48 -6 0 -37 93 -54 163
-8 32 -25 36 -25 6 0 -25 32 -213 58 -341 10 -49 16 -88 14 -88 -21 0 -149
207 -251 406 -126 247 -164 304 -213 322 -33 13 -41 12 -75 -4 -61 -31 -72
-62 -84 -236 -6 -84 -9 -270 -6 -413 4 -239 6 -268 30 -355 31 -119 72 -209
140 -314 72 -110 142 -183 253 -267 52 -39 94 -72 94 -74 0 -2 -35 -30 -77
-61 -99 -72 -203 -172 -258 -249 -97 -136 -144 -271 -169 -489 -9 -77 -18
-142 -21 -144 -3 -3 -5 19 -5 49 0 76 -25 231 -50 314 -31 99 -104 237 -171
319 -63 79 -167 171 -246 219 -29 17 -53 34 -53 38 0 3 34 30 76 60 101 71
238 217 296 316 53 89 109 227 129 318 11 45 14 160 14 460 0 398 0 400 -23
447 -31 61 -74 84 -132 68 -52 -14 -66 -35 -185 -265 -139 -268 -264 -470
-280 -453 -2 2 15 101 37 220 37 191 42 246 22 226 -3 -3 -17 -49 -31 -102
-14 -53 -29 -96 -33 -96 -4 0 -18 24 -31 53 -20 46 -24 73 -29 227 l-5 175
-39 -57 c-21 -32 -42 -58 -45 -58 -15 0 -81 80 -123 150 -67 110 -107 193
-114 238 -7 48 12 203 31 249 23 54 38 51 111 -17 36 -33 69 -59 72 -56 3 3 6
106 7 228 2 234 15 337 65 518 60 213 182 335 420 418 47 16 119 35 160 42 41
6 82 13 90 15 40 8 126 4 202 -10z m-221 -1741 c24 -26 24 -26 27 -287 7 -544
-26 -707 -189 -928 -211 -287 -353 -378 -730 -468 -272 -66 -353 -75 -624 -76
-205 0 -249 3 -300 18 -70 22 -142 57 -197 97 l-39 28 88 77 c176 155 297 222
896 504 282 133 357 176 448 257 134 119 215 237 355 514 136 270 200 333 265
264z m258 12 c43 -23 69 -64 195 -305 134 -258 179 -325 290 -437 107 -107
184 -156 450 -281 427 -202 662 -321 751 -381 111 -75 265 -201 265 -218 0
-20 -86 -81 -146 -104 -258 -96 -797 -53 -1241 99 -163 56 -315 174 -446 345
-197 259 -218 337 -233 891 -10 363 13 443 115 391z m510 -1655 c246 -111 597
-168 980 -159 l192 4 -7 -31 c-20 -90 -57 -125 -174 -158 -69 -20 -140 -31
-350 -56 -215 -26 -261 -36 -317 -74 -61 -41 -101 -107 -116 -190 -9 -58 -8
-80 17 -208 15 -79 45 -220 67 -314 61 -257 72 -338 66 -495 -12 -306 -91
-465 -581 -1164 -214 -306 -301 -396 -360 -373 -25 10 -29 152 -28 882 1 391
-3 757 -8 815 -5 58 -14 198 -21 313 -27 481 44 767 255 1021 70 84 252 223
295 226 2 0 42 -17 90 -39z m-1202 3 c64 -31 219 -176 277 -258 90 -127 148
-271 182 -451 23 -122 25 -460 5 -680 -9 -96 -15 -400 -18 -977 -5 -914 -2
-866 -63 -853 -71 16 -187 166 -597 780 -166 248 -213 333 -258 469 -82 245
-75 369 51 931 51 229 62 361 35 439 -17 49 -73 112 -125 138 -47 24 -186 50
-391 73 -188 20 -263 37 -328 72 -58 32 -83 63 -92 116 l-6 37 193 0 c426 0
780 61 983 168 53 28 91 27 152 -4z m-1602 -44 c24 -21 106 -63 156 -79 45
-15 65 -36 74 -81 31 -145 147 -214 400 -235 44 -4 88 -9 98 -12 14 -4 -28
-40 -163 -140 -100 -74 -183 -133 -184 -131 -1 2 -15 38 -30 80 -67 187 -183
319 -368 417 -61 33 -113 53 -257 97 -34 11 80 94 162 119 45 14 63 8 112 -35z
m4420 5 c39 -19 81 -45 94 -58 l23 -25 -59 -17 c-261 -73 -439 -210 -543 -416
-27 -55 -52 -115 -56 -134 -3 -20 -10 -35 -15 -33 -5 2 -90 62 -188 133 -207
149 -207 131 4 160 212 28 315 100 334 234 l6 45 72 27 c89 33 157 72 180 104
23 31 50 27 148 -20z m-4664 -151 c87 -26 241 -110 315 -172 174 -147 254
-303 254 -502 0 -108 -21 -194 -67 -283 -79 -151 -170 -210 -528 -343 -221
-83 -321 -144 -484 -296 -52 -49 -99 -88 -106 -88 -13 0 -69 240 -85 368 -13
96 -3 205 36 397 52 258 164 621 215 698 45 68 115 127 205 172 143 72 157 75
245 49z m4958 -41 c134 -66 202 -126 243 -213 64 -137 164 -483 207 -720 47
-253 38 -385 -40 -654 l-20 -68 -87 84 c-168 163 -301 242 -595 349 -190 70
-287 121 -351 185 -103 103 -158 264 -150 438 11 241 149 431 424 583 75 41
160 68 229 72 13 0 76 -25 140 -56z m-3678 -268 c67 -34 95 -59 122 -110 19
-35 22 -54 20 -150 -2 -131 -16 -208 -84 -460 -53 -193 -72 -244 -117 -303
-23 -30 -30 -33 -59 -29 -48 8 -229 97 -326 160 -84 54 -202 158 -236 206 -18
25 -18 28 5 116 13 52 23 121 23 163 1 46 7 86 17 105 31 63 239 223 389 298
72 37 86 40 136 36 32 -3 78 -16 110 -32z m2411 0 c93 -47 186 -108 280 -184
120 -97 124 -102 131 -217 7 -94 14 -133 39 -216 9 -31 8 -41 -10 -70 -27 -43
-145 -145 -250 -215 -87 -58 -286 -153 -321 -153 -26 0 -75 61 -100 124 -12
28 -50 167 -86 309 -58 228 -65 268 -65 354 0 121 14 167 65 219 33 33 57 45
116 62 102 28 120 27 201 -13z m-1303 -1255 c6 -267 11 -703 11 -970 0 -267 4
-502 9 -523 9 -36 18 -52 60 -107 15 -19 23 -54 31 -140 26 -267 76 -518 195
-973 115 -440 156 -546 232 -604 35 -27 41 -28 159 -29 l123 0 138 -69 c76
-37 171 -83 212 -102 40 -19 72 -36 69 -38 -2 -2 -28 3 -58 11 -30 8 -92 15
-137 15 -156 2 -242 -47 -409 -233 -147 -162 -187 -213 -271 -338 -236 -352
-312 -534 -358 -850 -19 -133 -25 -164 -29 -159 -2 2 -16 83 -31 179 -31 203
-71 335 -151 497 -108 220 -343 541 -549 750 -61 62 -98 90 -151 115 -68 32
-72 33 -206 33 l-137 -1 192 98 192 99 101 -7 c120 -8 160 2 204 52 34 39 80
125 104 197 22 65 178 685 222 882 20 87 49 258 65 379 27 212 29 220 58 250
16 17 35 44 40 59 7 19 11 217 11 585 0 306 5 728 10 937 18 729 32 730 49 5z
m-1593 333 c94 -64 218 -130 310 -164 30 -12 54 -24 52 -27 -54 -119 -175
-335 -191 -344 -14 -8 -60 -13 -122 -12 -110 0 -191 19 -263 60 -72 42 -86 74
-133 315 l-42 217 73 80 74 81 77 -73 c42 -40 116 -99 165 -133z m3463 120
c43 -46 69 -83 67 -92 -3 -9 -21 -101 -40 -206 -20 -105 -45 -208 -56 -230
-42 -83 -178 -139 -340 -140 -75 0 -102 4 -122 17 -24 16 -172 278 -185 327
-3 14 18 27 104 66 159 72 232 118 367 232 66 56 124 102 128 102 3 1 38 -34
77 -76z m-3823 -563 c52 -256 94 -483 94 -505 0 -30 -25 -94 -98 -250 -54
-115 -120 -248 -145 -294 -94 -167 -158 -331 -193 -489 -30 -139 -106 -256
-217 -338 -75 -56 -187 -106 -187 -85 0 5 29 75 65 155 36 81 122 315 191 521
114 343 125 380 127 455 2 79 1 83 -27 107 -35 30 -76 26 -144 -14 -71 -41
-160 -199 -267 -473 -97 -250 -139 -400 -174 -626 -11 -69 -22 -128 -24 -130
-16 -16 -61 76 -134 273 -136 363 -129 333 -115 535 13 179 40 413 68 578 30
179 116 434 168 503 83 109 312 281 504 377 112 56 392 171 406 167 4 -1 50
-212 102 -467z m4209 375 c100 -40 238 -110 320 -162 88 -57 294 -222 330
-265 41 -48 77 -134 124 -293 56 -188 86 -358 111 -622 35 -380 33 -397 -89
-718 -77 -202 -118 -288 -135 -282 -6 2 -16 39 -24 83 -40 239 -80 398 -147
584 -44 122 -185 432 -215 473 -68 93 -160 142 -216 116 -73 -36 -58 -154 69
-539 105 -319 176 -505 242 -634 l44 -87 -32 6 c-62 13 -171 79 -232 140 -81
81 -127 172 -170 337 -44 174 -54 195 -243 578 -89 179 -166 345 -173 370 -10
41 -4 81 81 505 51 253 95 470 97 482 l5 22 92 -33 c50 -18 123 -46 161 -61z
m-1110 -161 c32 -53 80 -140 108 -193 l50 -96 -35 -3 c-35 -3 -152 18 -199 36
l-25 10 18 154 c9 84 17 161 18 171 0 9 2 17 4 17 2 0 29 -43 61 -96z m-2256
-64 c7 -69 15 -137 18 -152 5 -24 1 -30 -28 -42 -32 -13 -219 -49 -225 -43 -5
5 114 236 162 312 31 51 50 72 54 63 4 -7 13 -69 19 -138z m-591 -285 c86 -22
206 -19 415 11 100 14 190 26 201 27 15 2 27 -19 60 -98 23 -56 63 -141 90
-189 107 -200 352 -569 542 -820 219 -291 199 -255 197 -349 -1 -93 -40 -353
-84 -564 -57 -277 -215 -846 -259 -938 -30 -62 -101 -135 -131 -135 -59 0
-108 76 -134 207 -51 248 -95 351 -515 1207 -221 453 -297 637 -380 926 -48
165 -125 511 -167 748 l-6 32 56 -24 c30 -14 82 -32 115 -41z m3522 41 c0 -26
-91 -451 -135 -631 -80 -325 -154 -520 -362 -950 -303 -626 -464 -969 -494
-1053 -17 -48 -43 -141 -59 -207 -35 -143 -53 -190 -88 -227 -35 -37 -64 -35
-111 8 -60 53 -84 103 -139 284 -139 457 -196 704 -257 1117 -33 227 -35 245
-20 279 8 20 91 139 184 263 93 124 207 283 254 353 141 210 343 556 388 666
23 56 47 102 53 102 6 0 70 -12 141 -27 109 -22 157 -27 295 -27 161 -1 167 0
250 30 101 38 100 38 100 20z m-4200 -671 c27 -33 7 -158 -64 -388 -107 -351
-187 -558 -282 -733 -51 -94 -69 -113 -115 -120 -59 -8 -63 1 -49 112 38 314
119 568 273 868 58 112 98 176 136 218 54 59 79 70 101 43z m4794 -15 c103
-91 267 -425 346 -706 35 -127 90 -413 90 -473 0 -38 -2 -41 -27 -42 -78 -3
-88 5 -152 130 -108 210 -227 540 -325 901 -51 187 -22 268 68 190z m-5564
-894 c70 -199 73 -210 60 -245 -25 -71 -80 -172 -124 -230 -56 -73 -275 -301
-289 -301 -18 0 -1 372 21 475 42 193 116 360 221 503 17 24 26 30 31 20 4 -7
40 -107 80 -222z m6481 -1 c60 -126 105 -262 124 -379 15 -94 19 -292 7 -360
l-7 -38 -140 143 c-144 148 -197 217 -242 316 -42 92 -41 122 10 253 24 63 57
153 72 200 15 47 30 89 33 94 7 13 89 -117 143 -229z m-1931 -972 c-6 -28 -23
-70 -38 -92 -33 -48 -196 -195 -324 -291 -102 -77 -234 -148 -249 -133 -11 11
58 284 110 438 58 168 125 320 238 540 57 110 141 276 186 369 l82 169 3 -474
c1 -309 -1 -492 -8 -526z m-2575 447 c127 -253 175 -361 235 -535 37 -108 87
-298 105 -398 6 -37 5 -38 -17 -32 -104 32 -336 201 -498 364 -103 103 -100
83 -100 659 l0 485 81 -159 c45 -87 132 -260 194 -384z m3695 234 c36 -17 94
-41 130 -53 36 -11 80 -30 98 -41 29 -18 32 -24 32 -67 0 -61 -32 -194 -63
-265 -24 -54 -76 -139 -114 -186 l-19 -23 -100 138 c-170 235 -172 240 -181
498 l-6 180 79 -75 c51 -48 102 -86 144 -106z m-4880 -175 c-16 -91 -58 -171
-174 -327 l-98 -132 -34 42 c-47 59 -119 210 -138 288 -8 36 -17 96 -18 133
l-3 68 126 48 c151 56 220 97 291 168 l53 54 3 -138 c2 -76 -2 -168 -8 -204z
m5480 -19 c24 -30 105 -118 180 -196 183 -188 230 -270 271 -474 33 -164 35
-339 5 -630 -14 -140 -27 -270 -28 -287 -4 -54 -13 -38 -27 45 -38 238 -115
456 -276 792 -62 129 -141 300 -176 380 -69 160 -152 423 -141 448 4 10 22 43
41 74 l33 58 38 -78 c20 -42 57 -102 80 -132z m-6094 84 c10 -40 -52 -250
-129 -436 -20 -47 -100 -218 -178 -380 -161 -334 -221 -499 -264 -728 -15 -80
-29 -156 -32 -170 -4 -15 -11 15 -19 80 -73 581 -56 907 59 1124 21 40 82 112
180 215 168 176 232 257 277 349 l32 65 34 -49 c19 -27 37 -58 40 -70z m120
-178 c28 -131 79 -237 179 -373 16 -21 14 -27 -45 -137 -34 -64 -66 -116 -70
-116 -16 0 -99 182 -125 273 -13 48 -30 136 -36 195 -10 97 -9 116 9 207 14
66 27 104 39 113 16 12 19 8 26 -40 4 -29 15 -84 23 -122z m5722 151 c21 -25
42 -142 42 -232 0 -105 -26 -235 -69 -355 -34 -92 -80 -182 -96 -187 -5 -1
-37 49 -70 112 -68 131 -69 107 14 226 57 81 105 201 126 314 25 134 25 135
34 135 5 0 13 -6 19 -13z m-5853 -408 c21 -119 48 -197 112 -329 l56 -115 -22
-60 c-116 -317 -174 -561 -201 -848 -10 -116 -14 -133 -65 -304 -19 -61 -59
-225 -90 -365 -74 -339 -73 -336 -112 -374 -56 -57 -106 -43 -132 36 -42 132
-14 1409 35 1579 8 30 46 120 83 200 123 268 315 670 318 667 2 -2 10 -41 18
-87z m5993 -9 c22 -52 104 -228 181 -391 149 -315 176 -385 191 -489 28 -193
50 -1127 32 -1331 -11 -122 -33 -193 -63 -209 -27 -15 -35 -13 -73 21 -38 33
-70 105 -81 184 -12 85 -72 342 -119 509 -56 196 -81 320 -101 501 -25 220
-68 399 -143 600 -60 161 -62 179 -22 252 66 120 120 276 145 417 3 21 8 36
10 35 1 -2 21 -47 43 -99z m-5464 28 c3 -13 11 -78 17 -145 23 -233 -12 -449
-121 -749 -338 -925 -332 -908 -364 -1108 l-22 -140 -17 115 c-93 629 10 1225
306 1764 73 134 170 285 183 285 7 0 14 -10 18 -22z m4966 -90 c294 -464 441
-966 440 -1503 -1 -193 -33 -540 -50 -530 -4 3 -10 38 -14 78 -14 152 -46 259
-231 772 -137 379 -216 610 -240 700 -23 84 -31 339 -15 473 13 111 15 122 30
122 5 0 41 -51 80 -112z m-3906 -240 c66 -90 157 -167 347 -295 l129 -86 -35
-24 c-19 -13 -108 -59 -198 -102 -89 -43 -230 -115 -311 -160 -117 -66 -150
-80 -157 -70 -29 45 -52 151 -56 264 -4 101 -2 134 17 205 24 94 86 232 145
325 34 53 39 57 49 41 6 -11 37 -55 70 -98z m2886 20 c115 -194 164 -380 143
-545 -10 -79 -45 -206 -62 -225 -3 -4 -40 16 -81 44 -41 28 -127 75 -190 105
-212 101 -375 183 -399 202 l-24 18 124 84 c177 120 286 214 357 309 34 44 62
85 62 91 0 25 20 1 70 -83z m-2505 -693 c72 -19 161 -63 215 -107 23 -17 73
-70 112 -117 100 -121 278 -358 278 -372 0 -7 -9 -9 -27 -4 -110 28 -237 23
-353 -16 -77 -25 -131 -51 -355 -174 -93 -51 -213 -115 -265 -141 -68 -35
-101 -60 -120 -86 -14 -20 -74 -76 -134 -123 -85 -69 -110 -85 -118 -74 -13
19 -2 310 17 434 18 124 48 261 91 429 38 150 45 159 166 231 197 117 354 155
493 120z m2190 0 c106 -23 372 -160 412 -214 15 -21 96 -352 124 -506 14 -83
23 -182 26 -320 6 -194 5 -199 -13 -185 -90 70 -190 154 -244 206 -52 50 -103
83 -260 167 -449 241 -528 272 -690 271 -59 -1 -111 -7 -137 -16 -24 -9 -43
-13 -43 -10 0 21 335 437 399 495 83 75 204 125 306 126 28 0 82 -6 120 -14z
m2315 -415 c7 -89 10 -204 6 -270 -3 -63 -10 -419 -15 -790 -6 -453 -14 -744
-25 -885 -9 -115 -20 -277 -25 -360 -6 -110 -14 -166 -30 -210 -27 -78 -97
-192 -172 -282 -57 -70 -254 -253 -271 -253 -15 0 -48 83 -48 123 0 53 29 104
107 189 108 116 112 124 144 281 16 78 29 151 29 162 0 28 -120 346 -158 420
-17 33 -39 70 -49 81 -25 29 -107 91 -156 115 -64 33 -66 8 -2 -41 30 -23 55
-44 55 -47 0 -2 -11 -19 -24 -36 -32 -42 -53 -110 -70 -227 -17 -117 -46 -196
-89 -243 -34 -37 -81 -55 -93 -35 -33 53 -45 439 -20 648 21 177 57 267 151
380 131 157 232 498 261 885 9 128 17 134 47 34 47 -157 56 -194 77 -329 34
-219 49 -281 76 -327 45 -78 139 -122 189 -89 65 43 75 144 76 781 0 292 4
519 8 505 4 -14 14 -95 21 -180z m-6992 -523 c1 -240 5 -394 13 -443 25 -157
100 -194 207 -100 62 54 68 75 123 411 20 122 81 350 98 368 5 5 11 -34 15
-85 17 -231 77 -520 140 -681 41 -106 65 -146 149 -259 116 -155 137 -254 139
-653 1 -197 -12 -307 -38 -336 -15 -16 -19 -17 -43 -5 -71 37 -113 126 -136
286 -15 107 -40 181 -77 232 -11 15 -5 25 42 74 44 45 50 55 30 49 -41 -13
-122 -69 -172 -121 -72 -75 -112 -152 -169 -322 -59 -176 -60 -201 -18 -382
27 -121 33 -130 130 -242 45 -51 88 -107 95 -125 19 -45 17 -100 -6 -151 -17
-38 -22 -42 -39 -32 -29 15 -265 257 -313 321 -22 30 -60 95 -84 144 -52 108
-55 131 -85 585 -15 221 -24 516 -31 990 -14 918 -14 940 2 1065 l15 110 7
-165 c3 -91 6 -330 6 -533z m3059 291 c110 -41 213 -178 279 -371 31 -90 58
-247 79 -447 8 -85 17 -173 20 -195 5 -54 -32 -376 -51 -445 -44 -153 -155
-255 -395 -360 -52 -23 -274 -102 -494 -176 -463 -155 -491 -160 -551 -100
-29 29 -34 41 -35 82 -3 161 4 195 116 533 83 255 108 358 120 501 12 133 -22
296 -89 427 -38 76 -35 123 11 174 20 22 57 55 82 72 78 53 563 293 626 310
92 23 212 21 282 -5z m1125 1 c87 -24 506 -230 621 -306 131 -87 141 -126 77
-296 -61 -161 -73 -218 -72 -337 0 -119 14 -181 112 -495 125 -399 150 -542
112 -628 -25 -57 -72 -83 -131 -72 -47 8 -758 246 -882 295 -140 55 -199 86
-275 144 -165 124 -214 269 -214 638 0 191 13 331 51 533 33 181 65 260 158
392 84 120 142 151 280 152 57 1 111 -6 163 -20z m1039 -664 c23 -29 31 -58
103 -375 36 -157 95 -410 130 -563 69 -297 115 -547 142 -772 25 -216 31 -953
10 -1285 -9 -140 -19 -256 -21 -258 -8 -9 -14 23 -55 308 -85 588 -148 863
-310 1355 -60 182 -116 366 -126 410 -9 44 -52 183 -96 310 -107 305 -128 390
-135 546 -7 163 -2 187 128 518 9 22 13 19 112 -75 56 -54 109 -107 118 -119z
m-3211 70 c92 -230 105 -320 74 -500 -21 -123 -45 -206 -109 -381 -31 -82 -78
-233 -105 -335 -27 -103 -81 -274 -119 -380 -157 -441 -233 -778 -341 -1524
-18 -121 -35 -224 -39 -228 -5 -4 -13 101 -20 235 -7 134 -14 253 -16 266 -2
12 -7 136 -11 275 -14 545 47 1051 207 1692 61 243 111 456 143 613 28 132 42
169 85 229 26 36 189 178 196 171 2 -2 27 -61 55 -133z m1487 -832 c3 -38 0
-103 -8 -144 l-13 -74 -13 99 c-11 76 -11 111 -3 153 15 72 31 57 37 -34z
m118 -203 c60 -78 156 -150 273 -207 51 -25 99 -55 107 -67 17 -26 69 -214 89
-322 31 -166 40 -599 17 -824 -20 -200 -93 -603 -158 -880 l-27 -115 -8 65
c-4 36 -16 151 -28 255 -37 348 -104 705 -245 1300 -66 280 -85 416 -85 614 0
152 5 241 15 241 1 0 23 -27 50 -60z m-208 -37 c12 -128 7 -295 -11 -403 -9
-52 -42 -203 -72 -335 -165 -713 -186 -829 -261 -1432 -15 -123 -30 -223 -33
-223 -8 0 -124 639 -155 855 -63 432 -57 746 20 1090 15 66 36 139 47 163 25
53 84 104 146 127 75 29 146 81 224 165 40 44 76 79 80 79 3 1 10 -38 15 -86z
m875 -319 c103 -35 197 -68 209 -74 20 -11 21 -16 14 -123 -12 -192 19 -622
70 -998 59 -429 115 -706 203 -1004 l47 -160 0 -165 c-1 -144 -4 -178 -27
-270 -34 -134 -74 -246 -181 -495 -105 -249 -177 -440 -212 -570 -15 -55 -30
-111 -34 -124 -6 -22 -9 -19 -43 32 -59 89 -118 214 -139 296 -16 63 -21 123
-25 361 -6 265 -4 309 25 635 60 670 52 939 -36 1225 -31 102 -32 164 -7 425
10 102 17 267 17 380 0 221 -16 350 -73 568 -35 139 -35 141 -12 132 9 -4 101
-36 204 -71z m-1392 52 c0 -8 -11 -57 -25 -108 -51 -187 -67 -316 -72 -578 -5
-234 -2 -292 29 -562 l12 -107 -37 -148 c-60 -244 -62 -261 -61 -593 0 -228 6
-363 22 -535 57 -614 51 -957 -19 -1163 -24 -69 -140 -265 -151 -254 -4 4 -19
52 -33 107 -41 160 -71 242 -200 555 -187 453 -214 544 -222 753 -7 181 3 247
68 461 88 290 141 565 193 1016 49 416 60 567 58 801 l-1 227 137 48 c126 45
276 92 295 93 4 1 7 -5 7 -13z m-495 -178 c13 -46 17 -317 6 -458 -12 -155
-78 -698 -112 -920 -66 -434 -185 -872 -343 -1270 -96 -240 -421 -990 -430
-990 -4 0 -6 30 -2 68 21 236 21 243 -48 813 -77 638 -79 677 -36 969 17 113
35 237 40 275 89 611 179 1011 307 1365 64 176 58 169 96 132 18 -17 45 -36
60 -41 63 -24 177 -6 372 57 78 26 81 26 90 0z m2266 -3 c243 -83 332 -84 421
-6 l36 31 10 -28 c6 -15 39 -110 72 -212 109 -328 195 -705 260 -1130 17 -113
45 -293 63 -400 45 -277 43 -392 -12 -850 -23 -195 -53 -434 -67 -530 -24
-166 -24 -183 -13 -337 6 -89 9 -167 7 -174 -9 -26 -450 1030 -538 1286 -117
344 -170 570 -250 1075 -70 447 -78 521 -91 872 -12 317 -8 428 15 428 7 0 46
-11 87 -25z m-4454 -531 c29 -33 102 -104 162 -158 l109 -98 -13 -31 c-7 -17
-17 -33 -22 -34 -5 -2 -81 70 -170 159 -170 171 -202 218 -203 291 l0 39 42
-54 c23 -29 66 -80 95 -114z m6674 104 c-6 -29 -19 -65 -29 -79 -9 -15 -90
-102 -179 -194 l-162 -167 -16 38 c-8 21 -14 41 -13 44 2 4 55 54 118 112 125
113 202 194 251 264 18 24 34 42 37 40 2 -3 -1 -28 -7 -58z m-6627 -339 c84
-89 92 -108 68 -162 -10 -23 -26 -48 -34 -55 -16 -13 -12 -21 -102 221 -33 88
-18 88 68 -4z m6484 -79 c-27 -74 -52 -137 -55 -140 -2 -3 -18 10 -34 28 -53
59 -35 111 68 196 37 30 68 54 69 53 2 -1 -20 -63 -48 -137z m-3853 -605 c15
-71 51 -248 81 -393 30 -145 54 -287 54 -315 0 -93 -90 -950 -107 -1017 -17
-69 -60 -190 -71 -202 -4 -4 -7 127 -8 290 0 245 -5 347 -28 582 -33 338 -44
697 -27 850 19 168 66 378 77 345 1 -5 15 -68 29 -140z m1253 30 c12 -49 28
-175 38 -279 18 -204 19 -174 -27 -691 -14 -155 -22 -352 -26 -605 l-6 -375
-28 60 c-58 124 -72 213 -129 829 -28 302 -26 352 15 563 58 296 128 604 136
596 4 -5 16 -48 27 -98z m-2038 -1145 c25 -181 95 -390 259 -772 39 -92 71
-173 71 -181 0 -8 -29 -60 -64 -116 -35 -56 -99 -176 -142 -266 -43 -91 -82
-165 -85 -165 -3 0 -12 42 -19 93 -7 50 -27 144 -46 209 -52 181 -113 302
-263 517 -17 24 -31 54 -31 66 0 13 57 166 126 341 69 176 135 345 147 378
l22 58 6 -38 c4 -22 12 -77 19 -124z m2810 75 c12 -33 75 -195 141 -361 65
-165 119 -313 119 -329 0 -18 -27 -70 -78 -149 -174 -267 -225 -401 -267 -701
l-7 -50 -47 100 c-26 55 -91 176 -144 268 -54 93 -97 179 -97 194 0 14 34 106
75 204 116 277 164 404 200 529 35 121 65 279 65 339 0 45 12 32 40 -44z m449
-1136 c171 -461 187 -510 200 -633 19 -165 24 -451 12 -611 -13 -167 -85 -789
-102 -875 -15 -75 -41 -121 -90 -163 -85 -74 -219 -70 -287 7 l-29 33 -6 314
c-12 535 -53 864 -147 1179 -60 198 -51 395 30 640 41 127 89 228 157 335 49
76 113 158 119 152 2 -2 66 -172 143 -378z m-3557 309 c153 -210 253 -469 277
-718 12 -127 7 -183 -33 -326 -100 -364 -134 -642 -144 -1164 -8 -376 -7 -372
-81 -410 -95 -48 -188 -34 -261 39 -69 69 -81 122 -129 556 -47 416 -53 504
-53 730 0 221 20 443 46 512 8 21 76 205 152 408 141 384 162 435 173 435 4 0
28 -28 53 -62z m2786 -413 c117 -197 196 -379 271 -624 76 -246 112 -474 131
-811 14 -252 25 -908 16 -943 -9 -39 -64 -97 -111 -118 -77 -35 -182 -15 -247
48 -17 16 -44 68 -69 132 -22 58 -79 196 -126 306 -117 273 -199 505 -255 719
-33 129 -24 200 67 516 128 443 135 469 164 640 16 91 36 192 46 224 l17 59
19 -24 c10 -13 45 -69 77 -124z m-2104 80 c9 -30 21 -93 26 -139 17 -145 62
-323 212 -841 50 -171 58 -272 34 -396 -23 -114 -100 -340 -186 -544 -39 -94
-108 -260 -152 -370 -45 -110 -92 -215 -106 -234 -50 -67 -171 -92 -257 -52
-47 21 -102 79 -111 118 -10 37 4 828 16 983 31 384 99 709 207 985 88 224
260 545 293 545 3 0 14 -25 24 -55z m-1149 -972 c0 -287 6 -355 61 -798 23
-184 39 -292 123 -815 27 -164 83 -566 111 -784 16 -129 2 -185 -93 -368 -45
-87 -85 -158 -88 -158 -3 0 3 42 13 93 14 68 20 146 23 302 5 311 -11 461 -96
915 -139 741 -173 1043 -150 1361 11 158 38 342 61 414 5 17 14 49 20 73 6 23
12 42 13 42 1 0 2 -125 2 -277z m4324 144 c39 -167 55 -320 55 -542 1 -304
-35 -596 -148 -1210 -88 -479 -106 -630 -106 -867 0 -106 6 -186 20 -271 12
-66 20 -127 18 -136 -9 -44 -137 196 -169 316 l-21 78 67 455 c36 250 88 597
115 770 91 592 113 791 132 1227 7 150 13 271 14 270 1 -1 12 -42 23 -90z
m-280 -1837 c-119 -756 -142 -1027 -120 -1443 15 -310 47 -493 111 -643 20
-45 47 -55 31 -11 -13 35 -59 280 -76 407 -20 150 -33 455 -26 595 l6 110 93
-151 c51 -83 115 -177 141 -208 111 -131 128 -203 87 -366 -14 -57 -23 -107
-18 -112 4 -4 27 28 51 72 l43 81 31 -19 c18 -11 75 -44 127 -75 52 -30 149
-100 216 -154 156 -129 219 -176 271 -202 53 -27 55 -26 41 4 -16 35 -3 43 30
18 63 -47 54 -113 -22 -154 -57 -31 -62 -38 -76 -105 -16 -77 -40 -93 -255
-174 -243 -92 -407 -172 -530 -260 -138 -98 -192 -115 -365 -115 -123 0 -146
3 -250 34 -63 18 -131 43 -152 56 -51 34 -85 108 -98 220 -19 149 -3 255 87
605 131 512 152 633 153 876 0 218 -28 402 -100 639 -21 72 -52 184 -69 250
-17 66 -41 155 -55 198 -21 68 -22 78 -8 72 103 -39 205 -26 303 38 l27 18 4
-300 c2 -204 7 -304 15 -312 8 -8 13 17 17 98 4 59 8 135 11 168 2 33 4 182 4
331 l1 272 72 -25 c96 -33 174 -29 250 15 29 16 54 29 54 28 1 0 -25 -170 -57
-376z m-3649 313 c36 3 86 14 113 25 26 12 47 20 48 19 1 -1 4 -191 8 -423 5
-254 12 -427 18 -438 17 -30 26 73 28 319 1 121 3 234 4 252 l1 32 48 -29 c72
-46 148 -58 225 -38 34 9 63 15 64 15 1 -1 -14 -56 -32 -122 -170 -616 -179
-650 -201 -818 -19 -142 -14 -377 10 -523 9 -50 56 -250 105 -445 107 -424
126 -532 118 -684 -6 -121 -16 -160 -59 -222 -93 -138 -498 -190 -695 -89 -28
14 -106 62 -174 108 -125 84 -150 95 -404 189 -77 28 -173 67 -213 86 -64 30
-76 40 -93 76 -10 23 -19 53 -19 67 0 38 -25 67 -64 74 -20 4 -42 17 -51 29
-32 46 -9 137 36 137 16 0 18 -5 13 -26 -4 -15 -3 -25 2 -23 56 24 145 83 216
143 101 86 456 339 466 332 4 -2 25 -41 47 -85 58 -121 73 -102 34 45 -27 102
-27 168 -2 224 11 25 59 96 106 159 47 63 114 164 149 225 57 100 63 108 67
81 1 -17 1 -158 -2 -315 -6 -308 -18 -425 -67 -648 -34 -152 -33 -142 -21
-142 10 0 52 105 75 190 31 111 46 241 57 470 22 464 -4 768 -135 1580 -18
113 -31 213 -28 222 3 15 11 14 70 -9 55 -20 79 -24 132 -20z m434 -1568 c17
-77 25 -132 21 -155 -7 -36 -43 -115 -50 -108 -3 2 -12 49 -21 103 -22 130
-24 433 -4 560 l15 90 6 -185 c5 -147 12 -209 33 -305z m2695 141 c1 -161 -19
-359 -39 -396 -7 -11 -14 -3 -30 35 -26 60 -24 120 9 270 14 65 24 158 28 265
l7 165 12 -85 c7 -47 13 -161 13 -254z"/>
</g>
</svg>
