<?xml version="1.0" standalone="no"?>
<!DOCTYPE svg PUBLIC "-//W3C//DTD SVG 20010904//EN"
 "http://www.w3.org/TR/2001/REC-SVG-20010904/DTD/svg10.dtd">
<svg version="1.0" xmlns="http://www.w3.org/2000/svg"
 width="1140.000000pt" height="2280.000000pt" viewBox="0 0 1140.000000 2280.000000"
 preserveAspectRatio="xMidYMid meet">

<g transform="translate(0.000000,2280.000000) scale(0.100000,-0.100000)"
fill="#faebd7" stroke="none">
<path d="M5580 22025 c-494 -83 -675 -278 -734 -787 -9 -73 -16 -177 -16 -232
0 -97 0 -98 -22 -92 -13 4 -42 10 -65 13 -36 5 -45 2 -66 -20 -33 -36 -62
-168 -62 -282 0 -101 16 -156 70 -240 18 -27 45 -74 61 -104 40 -75 97 -136
144 -155 22 -9 40 -21 40 -28 0 -7 7 -56 16 -108 9 -52 18 -116 21 -141 6 -60
-34 -293 -58 -342 -33 -64 -201 -163 -694 -407 -360 -178 -446 -228 -559 -327
-113 -98 -145 -120 -201 -139 -76 -26 -114 -47 -185 -105 -36 -30 -121 -83
-188 -118 -137 -73 -212 -134 -259 -212 -55 -92 -234 -748 -255 -931 -15 -131
-4 -224 53 -454 21 -88 39 -169 39 -180 0 -11 -16 -67 -35 -125 -102 -300
-146 -554 -170 -994 -8 -138 -26 -202 -77 -278 -56 -82 -130 -241 -172 -367
-51 -154 -66 -264 -66 -474 0 -176 -1 -183 -31 -266 -49 -136 -66 -195 -81
-273 -25 -140 -10 -471 43 -922 47 -400 50 -477 59 -1175 5 -434 14 -764 24
-900 54 -743 61 -808 110 -945 114 -321 188 -521 195 -528 29 -29 120 40 147
108 l17 45 29 -21 c34 -25 36 -23 76 56 61 121 102 252 102 327 0 81 -8 102
-92 245 -102 172 -188 338 -188 364 0 41 148 404 177 433 24 25 27 25 44 10
25 -22 35 -57 59 -204 24 -148 60 -231 122 -284 56 -49 98 -62 136 -42 62 32
82 137 82 434 0 376 -36 517 -181 719 -75 103 -115 189 -128 273 -22 134 -9
358 29 505 19 73 174 513 280 795 118 312 161 477 180 688 11 121 2 300 -19
395 -11 45 0 89 39 167 51 101 60 152 70 375 7 165 15 234 35 320 46 200 94
332 188 515 50 96 125 244 168 329 l78 154 6 -39 c27 -152 71 -293 208 -675
81 -223 80 -220 78 -758 -2 -261 -7 -499 -12 -530 -15 -92 -48 -177 -101 -258
-126 -193 -142 -302 -84 -578 33 -153 32 -182 -4 -313 -89 -323 -119 -514
-131 -832 -5 -140 -15 -291 -23 -335 -8 -44 -58 -267 -111 -495 -241 -1038
-240 -1033 -240 -1745 0 -466 3 -563 23 -800 36 -432 80 -857 123 -1185 47
-364 54 -486 40 -685 -10 -146 -12 -153 -60 -272 -56 -136 -161 -448 -191
-563 -40 -156 -53 -270 -54 -455 0 -164 5 -213 52 -545 97 -686 193 -1425 204
-1574 8 -110 8 -182 0 -275 -13 -141 -35 -220 -89 -308 -51 -84 -54 -96 -63
-219 -10 -136 -19 -158 -137 -335 -128 -192 -223 -350 -292 -486 -33 -65 -107
-208 -165 -318 -131 -249 -132 -257 -40 -357 24 -26 44 -51 44 -56 0 -5 22
-21 49 -35 28 -16 59 -44 75 -67 18 -28 42 -48 73 -61 26 -11 66 -37 89 -59
55 -51 93 -57 173 -30 l62 21 45 -40 c78 -68 173 -87 270 -54 57 19 149 106
257 243 37 47 90 112 118 145 87 103 129 218 129 348 0 73 1 74 149 269 151
199 165 252 112 434 -18 60 -46 139 -62 176 -39 89 -38 132 6 221 45 91 46
147 6 283 -42 142 -55 225 -48 323 12 168 185 982 254 1189 19 59 81 208 138
332 175 382 216 488 252 653 27 123 24 484 -6 707 -22 164 -54 359 -71 435
-22 93 -15 123 70 296 138 285 200 508 220 789 12 174 104 1189 120 1321 17
147 159 858 266 1337 30 134 54 253 54 265 0 36 17 5 28 -53 6 -30 41 -190 77
-355 219 -1000 215 -973 310 -2005 57 -616 67 -710 91 -819 36 -159 81 -284
175 -479 93 -193 91 -169 44 -432 -63 -359 -92 -772 -66 -940 19 -123 137
-437 295 -784 40 -89 86 -197 100 -239 72 -208 232 -931 258 -1166 14 -132 3
-235 -38 -356 -21 -61 -27 -100 -28 -166 -1 -81 1 -91 37 -158 20 -40 37 -81
37 -92 0 -11 -14 -52 -31 -92 -95 -222 -112 -302 -85 -407 20 -76 52 -129 163
-268 106 -131 113 -146 113 -229 1 -143 41 -234 170 -383 50 -58 111 -136 137
-173 132 -197 325 -240 477 -107 34 31 60 38 71 20 10 -16 86 -32 122 -25 21
4 55 25 89 56 30 27 64 49 76 49 13 0 46 25 84 63 34 34 81 78 104 97 23 19
61 61 83 95 54 79 54 112 -2 197 -22 35 -66 115 -96 178 -136 284 -264 509
-428 754 -109 163 -124 200 -136 324 -9 93 -15 114 -60 210 -62 133 -77 186
-92 316 -20 179 4 429 127 1336 14 102 31 232 39 290 8 58 31 222 52 365 44
309 51 540 19 700 -38 196 -123 471 -227 733 -47 118 -49 126 -49 225 0 56 -5
145 -11 197 -11 86 -10 117 15 320 96 798 118 1002 141 1330 8 118 17 247 20
285 29 390 32 704 10 995 -32 431 -83 707 -260 1435 -106 434 -106 431 -115
725 -11 337 -27 441 -134 854 -30 113 -32 172 -11 242 23 71 45 210 45 279 0
91 -24 167 -98 305 -36 69 -80 152 -96 185 l-29 60 -8 388 c-4 213 -4 472 0
575 l8 187 92 250 c122 329 148 411 168 525 8 52 18 103 22 112 4 11 62 -94
173 -315 243 -481 283 -616 298 -992 10 -234 18 -273 82 -395 l39 -75 -17
-115 c-24 -155 -24 -377 0 -490 19 -94 151 -495 247 -750 195 -523 229 -653
236 -890 7 -231 -18 -315 -152 -495 -103 -139 -129 -209 -150 -405 -29 -266
-13 -631 31 -698 37 -56 114 -46 183 25 62 66 87 128 115 292 23 135 42 188
72 198 17 6 56 -67 130 -242 48 -114 74 -190 74 -214 0 -30 -27 -85 -135 -274
-138 -241 -161 -298 -149 -365 8 -46 107 -305 129 -338 16 -24 49 -32 60 -14
11 18 25 11 36 -17 17 -46 60 -94 95 -109 64 -27 49 -57 211 406 77 220 88
271 108 500 53 610 78 1248 68 1715 -7 309 10 533 88 1181 29 235 31 515 5
659 -10 55 -33 145 -51 200 -54 162 -57 181 -60 380 -1 105 -8 224 -15 265
-25 156 -104 350 -218 538 -28 46 -53 95 -56 110 -5 23 -16 140 -51 542 -16
175 -69 410 -140 619 -19 58 -35 116 -35 129 0 14 16 83 35 156 75 287 78 351
30 626 -40 234 -108 483 -187 688 -57 147 -105 196 -278 288 -73 38 -159 92
-193 121 -60 50 -87 66 -227 132 -36 16 -114 69 -175 117 -171 137 -253 187
-495 305 -369 181 -679 349 -725 394 -26 26 -47 59 -59 95 -27 82 -32 257 -12
415 10 71 18 130 19 131 1 1 21 11 45 23 47 24 78 67 198 276 l69 120 0 105
c-1 160 -38 283 -90 296 -14 3 -43 2 -65 -4 -25 -6 -42 -6 -46 0 -3 5 -10 75
-15 156 -17 269 -56 451 -127 587 -44 83 -142 185 -225 234 -113 66 -389 142
-509 140 -29 -1 -87 -7 -128 -14z m260 -65 c95 -15 182 -45 299 -102 125 -60
193 -122 244 -224 85 -169 117 -350 117 -670 0 -116 3 -214 7 -217 3 -4 37 22
74 58 45 44 72 63 83 59 18 -7 42 -79 57 -172 15 -97 0 -157 -75 -291 -59
-105 -140 -221 -155 -221 -3 0 -23 25 -45 56 -21 30 -40 54 -42 52 -1 -2 -4
-68 -5 -146 -1 -158 -14 -233 -48 -281 -43 -60 -406 -347 -506 -399 -43 -23
-62 -27 -140 -27 -76 0 -98 4 -145 26 -64 30 -202 132 -378 278 -168 140 -176
157 -178 371 -1 85 -2 161 -3 168 -2 22 -18 13 -31 -17 -19 -46 -54 -75 -77
-62 -31 16 -166 232 -199 316 -20 55 -15 210 10 293 23 72 43 70 128 -15 l68
-67 0 219 c1 534 99 789 351 913 86 41 223 86 314 101 72 12 200 12 275 1z
m-750 -2233 c50 -41 71 -85 165 -344 50 -142 131 -361 178 -488 47 -126 92
-257 99 -290 14 -68 17 -354 5 -430 -9 -49 -9 -49 -22 -25 -36 69 -329 820
-364 935 -54 174 -120 519 -121 629 0 54 8 56 60 13z m1280 -21 c0 -55 -37
-323 -57 -406 -26 -116 -83 -280 -198 -570 -62 -157 -138 -352 -170 -434 -37
-96 -61 -144 -66 -135 -14 27 -32 224 -26 304 9 132 33 212 177 600 75 204
154 419 176 480 33 95 45 117 90 164 29 29 57 50 63 47 6 -4 11 -26 11 -50z
m-259 -316 c-43 -118 -105 -280 -136 -360 -158 -399 -170 -457 -154 -720 18
-295 19 -278 -23 -341 -105 -158 -110 -348 -27 -907 46 -303 125 -442 327
-576 172 -113 324 -166 568 -196 84 -11 204 -52 204 -71 0 -4 -35 -43 -78 -86
-136 -136 -158 -222 -102 -395 32 -97 33 -105 21 -158 -36 -157 -36 -137 -1
-325 27 -147 22 -522 -8 -645 -28 -113 -37 -226 -22 -265 8 -19 13 -101 15
-216 2 -112 8 -202 15 -224 30 -92 129 -54 305 116 62 60 115 109 119 109 13
0 6 -106 -9 -128 -9 -12 -71 -50 -138 -84 -103 -52 -134 -74 -200 -139 -66
-65 -84 -92 -126 -180 -95 -202 -96 -321 -5 -503 58 -114 104 -185 153 -239
l40 -43 -145 -274 c-80 -151 -201 -378 -269 -505 -68 -126 -175 -336 -238
-465 -135 -275 -173 -336 -245 -390 -154 -115 -402 -103 -536 27 -62 60 -98
124 -292 513 -204 412 -427 841 -503 973 -28 49 -51 100 -51 113 0 15 19 49
48 84 62 77 105 149 150 252 35 80 37 88 36 193 0 98 -3 119 -31 193 -73 192
-166 290 -374 398 l-134 69 -3 49 c-5 85 1 85 91 1 85 -80 204 -170 247 -187
38 -15 70 -1 86 37 10 25 14 79 14 204 0 123 4 187 16 233 19 73 14 160 -16
277 -26 104 -37 515 -16 624 26 134 30 237 12 306 -21 83 -20 97 11 177 38 99
38 216 0 294 -28 59 -75 113 -146 171 l-43 36 34 20 c52 31 92 41 218 58 246
32 438 108 617 246 68 53 145 156 178 238 45 110 105 516 120 801 10 190 -18
313 -89 398 -33 38 -32 21 -21 357 9 292 11 284 -82 530 -254 669 -278 735
-267 735 2 0 50 -33 106 -73 185 -132 246 -158 369 -158 123 -1 204 35 391
173 50 37 93 66 94 65 2 -2 -32 -99 -75 -217z m331 75 c50 -82 123 -126 573
-350 240 -120 476 -245 535 -283 94 -61 251 -184 257 -201 2 -3 -68 -23 -155
-44 -437 -105 -561 -111 -712 -36 -101 51 -155 124 -348 471 -34 62 -93 153
-130 202 -37 49 -73 97 -81 108 -11 15 -11 34 -1 115 11 79 15 94 24 79 6 -10
23 -38 38 -61z m-1416 -54 c6 -65 6 -67 -30 -111 -87 -109 -144 -196 -233
-360 -152 -277 -211 -347 -343 -409 -78 -36 -223 -35 -405 1 -198 41 -377 78
-404 84 l-24 5 24 22 c178 164 266 218 766 469 238 119 447 226 465 239 56 38
119 102 140 144 l21 40 8 -29 c5 -16 11 -59 15 -95z m93 -350 c39 -115 71
-222 71 -239 0 -82 -150 -273 -271 -345 -70 -41 -185 -81 -267 -92 -47 -6 -65
-3 -153 30 -54 21 -99 40 -99 44 0 3 31 20 68 38 86 41 159 106 215 191 25 37
97 162 162 278 104 188 178 302 196 304 4 0 38 -94 78 -209z m1308 127 c28
-40 97 -160 153 -266 146 -276 180 -317 338 -412 42 -25 75 -49 74 -55 0 -5
-43 -25 -94 -43 -78 -27 -102 -32 -148 -26 -67 7 -188 46 -255 82 -127 69
-285 268 -285 359 0 26 28 108 136 401 9 23 19 40 23 37 5 -2 31 -37 58 -77z
m-1129 -602 c34 -90 62 -171 62 -179 0 -22 -33 -42 -121 -73 -100 -35 -239
-43 -371 -20 -153 26 -154 27 -52 64 49 18 119 52 155 76 82 55 176 157 218
236 18 33 35 60 39 60 4 0 35 -74 70 -164z m1059 -76 c61 -56 155 -110 273
-157 22 -9 17 -12 -50 -28 -111 -25 -260 -30 -348 -11 -92 19 -178 58 -186 83
-5 16 96 306 120 345 3 5 32 -31 65 -80 32 -50 88 -117 126 -152z m1628 35
c39 -18 87 -49 109 -69 36 -34 38 -37 24 -58 -8 -13 -30 -34 -49 -47 l-34 -23
-270 6 c-231 6 -278 5 -323 -9 -147 -45 -205 -192 -137 -354 14 -35 24 -65 22
-68 -3 -2 -29 11 -58 30 -151 96 -397 196 -569 231 -202 40 -465 45 -580 11
-30 -9 -88 -34 -127 -55 -40 -22 -73 -36 -73 -32 0 5 16 48 36 98 20 49 40 99
45 111 8 21 8 21 126 -20 114 -40 122 -41 248 -41 165 -1 240 15 505 106 169
58 222 72 300 79 123 11 170 20 435 84 121 29 229 55 240 58 28 6 50 0 130
-38z m-4175 -26 c182 -45 275 -63 360 -69 95 -7 134 -16 215 -45 315 -116 454
-148 645 -149 122 0 143 3 215 28 44 15 94 36 111 46 l32 18 44 -111 c25 -62
44 -113 43 -115 -1 -1 -35 13 -76 33 -100 47 -195 65 -342 65 -312 -1 -627
-87 -898 -245 -42 -25 -78 -45 -81 -45 -2 0 9 37 24 83 52 148 19 253 -97 312
-55 28 -65 30 -174 30 -64 0 -188 -2 -276 -5 l-160 -5 -55 30 c-69 37 -74 60
-27 108 53 53 147 93 222 96 17 1 140 -26 275 -60z m4494 -179 c154 -85 188
-115 230 -203 96 -201 224 -709 233 -926 7 -137 -7 -239 -53 -408 -37 -138
-50 -167 -89 -203 -23 -21 -36 -25 -88 -25 -54 1 -74 7 -157 50 -121 63 -225
142 -324 245 -94 98 -210 274 -233 350 -44 151 -58 191 -95 260 -53 100 -109
177 -206 282 -94 103 -135 164 -162 243 -33 96 -35 152 -8 205 51 99 110 113
434 104 234 -7 243 -6 286 15 24 11 57 35 73 51 16 17 32 29 35 28 4 -2 60
-32 124 -68z m-5031 25 c71 -61 80 -62 472 -54 159 4 161 4 217 -24 82 -40
103 -74 103 -162 -1 -56 -7 -85 -33 -146 -32 -74 -56 -107 -199 -270 -116
-133 -192 -276 -253 -474 -23 -78 -66 -153 -148 -263 -110 -147 -237 -254
-407 -344 -89 -46 -107 -52 -162 -53 -102 0 -127 37 -190 280 -37 146 -38 154
-37 320 1 161 3 178 37 311 61 239 167 597 192 649 38 78 117 149 236 211 57
29 110 53 117 54 8 0 32 -16 55 -35z m1903 -200 c126 -22 235 -77 328 -165
130 -124 154 -198 136 -428 -24 -321 -66 -600 -110 -726 -86 -251 -296 -412
-645 -494 -153 -36 -335 -37 -445 -4 -146 45 -255 119 -407 273 -120 122 -182
201 -304 383 -115 172 -117 181 -71 319 128 381 497 663 1050 802 214 54 329
64 468 40z m1300 5 c168 -21 426 -94 586 -167 348 -158 577 -384 678 -670 51
-144 45 -168 -91 -365 -252 -363 -510 -585 -736 -633 -278 -59 -712 76 -910
283 -72 75 -128 189 -153 312 -52 252 -96 646 -88 800 3 68 10 98 31 141 31
63 131 167 208 215 120 76 292 107 475 84z m-2777 -1198 c44 -62 84 -127 89
-145 5 -19 4 -94 -4 -192 -35 -422 -112 -780 -240 -1105 -31 -80 -70 -188 -86
-240 -64 -201 -141 -367 -241 -515 -65 -95 -308 -350 -329 -343 -29 10 -146
412 -187 648 -35 196 -45 327 -45 545 0 274 31 477 109 710 50 147 63 164 160
200 224 82 436 248 579 455 83 119 87 123 102 108 7 -7 49 -64 93 -126z m4203
16 c113 -146 207 -243 303 -310 78 -56 192 -115 275 -144 86 -30 111 -62 158
-205 81 -247 107 -424 107 -729 -1 -224 -8 -313 -46 -525 -39 -223 -159 -634
-187 -643 -15 -5 -163 138 -242 233 -137 167 -242 363 -311 580 -22 72 -65
189 -94 260 -133 324 -251 890 -258 1239 l-2 92 51 69 c28 39 72 100 98 138
26 37 48 67 50 67 2 0 46 -55 98 -122z m-3878 -413 l108 -115 -36 -83 c-39
-92 -81 -239 -91 -322 -4 -31 -9 -54 -12 -52 -7 8 -89 687 -83 687 4 0 55 -52
114 -115z m3426 -260 c-22 -175 -42 -320 -44 -322 -2 -2 -13 49 -25 112 -17
93 -63 241 -105 346 -5 12 21 42 101 114 67 61 109 92 111 84 1 -8 -16 -158
-38 -334z m-3571 -18 c1 -63 -4 -81 -80 -260 -45 -105 -86 -200 -91 -210 -20
-38 -18 -7 6 84 37 139 73 325 96 494 11 83 23 170 27 195 6 39 9 26 24 -95 9
-77 18 -170 18 -208z m3695 256 c11 -124 45 -344 80 -520 18 -90 31 -163 30
-163 -2 0 -26 44 -53 98 -64 128 -111 262 -111 320 -1 63 33 342 41 342 3 0 9
-35 13 -77z m-4807 -62 c-3 -14 -23 -78 -45 -142 -80 -232 -112 -442 -112
-744 0 -334 42 -601 154 -985 14 -46 23 -86 22 -88 -6 -6 -155 242 -185 309
-66 146 -93 278 -92 444 1 153 46 667 71 801 22 122 90 368 121 442 l21 47 25
-29 c17 -21 23 -37 20 -55z m5966 -66 c79 -238 107 -400 138 -775 46 -562 40
-596 -168 -987 -48 -90 -88 -161 -90 -159 -2 1 26 117 61 257 92 365 126 589
126 839 0 285 -55 602 -144 821 -14 36 -26 73 -26 82 0 13 50 71 56 64 1 -1
22 -65 47 -142z m-4395 -97 c26 -12 76 -30 112 -38 l64 -16 -74 -28 c-41 -15
-102 -34 -135 -41 -78 -18 -225 -31 -225 -19 0 8 30 89 79 216 l10 28 61 -39
c34 -22 82 -50 108 -63z m2920 30 c31 -65 52 -129 52 -162 0 -17 -6 -18 -79
-12 -89 7 -209 35 -289 68 l-54 21 84 24 c79 23 166 65 217 104 13 11 27 19
31 19 4 0 21 -28 38 -62z m-2742 -206 c103 -67 167 -171 168 -272 1 -31 -9
-87 -22 -128 -20 -62 -25 -71 -40 -63 -46 26 -194 166 -255 241 -62 77 -142
199 -135 205 6 5 193 53 209 54 9 1 43 -16 75 -37z m2524 17 c101 -23 120 -30
120 -46 0 -21 -98 -168 -155 -231 -25 -28 -88 -87 -139 -131 l-93 -79 -22 46
c-64 141 -41 263 71 368 91 86 120 96 218 73z m-2773 -181 c55 -79 99 -144 98
-146 -14 -16 -212 72 -271 122 -36 29 -36 30 -31 89 6 66 15 77 68 77 35 0 39
-4 136 -142z m3070 91 c10 -33 11 -54 3 -73 -16 -44 -184 -141 -278 -161 -32
-7 -32 -7 60 127 51 73 99 139 108 145 8 7 33 12 55 10 38 -2 40 -4 52 -48z
m-3192 -204 c44 -25 84 -50 89 -55 7 -7 65 -239 66 -262 0 -13 -18 -9 -65 13
-65 31 -140 101 -160 151 -19 48 -33 198 -19 198 5 0 45 -20 89 -45z m3193
-50 c-4 -85 -7 -99 -34 -137 -51 -73 -185 -148 -192 -109 -1 9 9 64 22 121 21
85 31 109 53 128 31 26 133 89 147 91 4 1 7 -42 4 -94z m-234 -52 c-56 -234
-147 -431 -251 -542 -53 -55 -53 -55 -68 -34 -10 14 -21 77 -32 175 -16 148
-16 154 3 189 10 20 60 75 111 122 84 78 98 87 155 100 89 21 89 21 82 -10z
m-2688 7 c38 -15 213 -188 230 -227 27 -62 7 -318 -27 -359 -39 -47 -205 195
-276 401 -13 39 -27 98 -30 133 l-6 62 41 0 c22 0 53 -5 68 -10z m-168 -274
c9 -9 12 -47 10 -142 l-3 -129 -19 40 c-16 34 -116 301 -116 310 0 6 114 -65
128 -79z m3022 55 c0 -33 -126 -319 -135 -309 -3 2 -1 60 3 128 l7 124 55 33
c58 35 70 39 70 24z m-2898 -150 c52 -92 106 -169 169 -238 65 -72 71 -88 89
-238 11 -90 11 -104 -4 -133 -10 -20 -24 -32 -37 -32 -28 0 -81 44 -135 112
-83 105 -110 191 -138 439 -22 187 -10 206 56 90z m2722 54 c9 -25 -14 -246
-35 -335 -30 -123 -71 -201 -146 -280 -77 -82 -99 -92 -126 -59 -18 22 -19 35
-13 140 3 65 10 129 15 143 6 14 43 64 84 111 40 46 95 122 121 167 71 121 76
128 85 128 5 0 11 -7 15 -15z m1950 -409 c135 -276 150 -351 143 -710 -6 -364
-16 -403 -257 -980 -76 -184 -160 -392 -185 -463 -42 -116 -115 -385 -146
-538 l-12 -60 -34 125 c-78 288 -153 598 -175 717 -19 110 -22 163 -22 368 -1
266 12 352 75 532 41 116 66 165 227 437 192 326 243 442 278 634 14 77 19 90
30 81 8 -7 43 -71 78 -143z m-6586 72 c30 -171 109 -350 283 -638 241 -399
294 -554 306 -891 11 -321 -45 -663 -182 -1104 -26 -82 -50 -156 -54 -163 -4
-8 -15 23 -25 75 -58 293 -127 516 -247 801 -38 89 -100 235 -138 325 -87 205
-144 375 -170 504 -18 86 -21 138 -21 341 0 260 10 345 57 475 27 78 161 347
172 347 4 0 12 -32 19 -72z m1852 -60 c72 -185 137 -272 253 -338 31 -18 60
-37 64 -42 9 -16 43 -227 43 -275 0 -34 -5 -46 -25 -59 -36 -23 -70 -6 -126
64 -100 123 -182 280 -221 420 -20 75 -41 312 -26 312 3 0 21 -37 38 -82z
m2819 -69 c-4 -41 -16 -113 -28 -160 -43 -166 -203 -440 -283 -483 -34 -19
-37 -19 -62 -3 -33 22 -33 57 -3 222 l22 119 60 34 c33 18 81 54 107 80 44 42
116 162 133 222 4 14 17 48 29 75 l21 50 5 -40 c3 -22 2 -74 -1 -116z m-3762
-294 c-7 -234 -36 -301 -184 -431 -43 -37 -101 -90 -130 -118 l-52 -49 -55
117 c-31 65 -56 120 -56 123 0 3 67 74 148 157 136 139 266 294 310 368 24 41
25 26 19 -167z m4772 51 c41 -54 142 -168 224 -253 147 -150 150 -154 138
-181 -63 -138 -95 -202 -102 -202 -12 0 -190 152 -240 206 -105 113 -129 193
-128 420 0 153 1 158 17 134 9 -14 50 -69 91 -124z m-3672 -360 c64 -88 90
-110 149 -131 l39 -13 1 -134 c1 -73 -2 -143 -7 -155 -13 -35 -52 -39 -101
-10 -72 42 -181 140 -220 197 -58 85 -65 132 -60 382 l4 216 69 -136 c38 -75
95 -173 126 -216z m2651 -183 c-26 -57 -190 -221 -256 -256 -102 -55 -122 -30
-122 161 0 118 2 133 18 138 60 19 99 43 136 85 50 55 128 181 188 302 l43 88
6 -238 c6 -221 5 -241 -13 -280z m-3837 -125 c13 -142 7 -311 -16 -420 -15
-74 -190 -606 -203 -620 -4 -4 1 86 11 200 27 313 16 548 -34 736 -6 21 -8 50
-4 65 3 15 49 67 108 123 l102 97 12 -29 c7 -16 18 -85 24 -152z m5085 -35 c4
-13 -3 -70 -15 -126 -36 -178 -44 -271 -38 -462 4 -99 12 -231 20 -292 7 -62
11 -113 8 -113 -17 0 -180 481 -208 610 -31 145 -22 533 14 593 7 12 213 -184
219 -210z m-6150 -145 c37 -129 134 -385 243 -640 212 -495 306 -866 318
-1248 l6 -175 -42 50 c-58 70 -217 301 -288 420 -268 446 -390 889 -369 1340
7 157 23 258 57 366 l23 74 10 -35 c5 -19 24 -88 42 -152z m7057 65 c40 -151
51 -272 44 -478 -8 -200 -24 -322 -62 -468 -64 -245 -195 -538 -347 -777 -82
-128 -218 -321 -264 -375 l-25 -30 5 175 c7 228 34 396 107 665 56 206 99 320
251 673 113 263 172 423 220 594 18 65 36 118 39 118 3 0 18 -44 32 -97z
m-4954 -64 c251 -137 374 -260 432 -431 17 -51 20 -80 17 -155 -3 -82 -8 -99
-41 -165 -53 -102 -153 -229 -200 -252 -36 -17 -41 -17 -80 -2 -42 16 -204
131 -284 201 -105 92 -152 321 -104 502 22 85 156 343 178 343 3 0 40 -19 82
-41z m2874 -1 c86 -117 151 -266 166 -380 12 -98 -28 -323 -66 -368 -29 -35
-263 -226 -301 -246 -15 -7 -47 -14 -72 -14 -42 0 -48 4 -112 70 -75 78 -129
163 -158 251 -62 184 29 412 222 555 68 51 260 162 280 163 9 1 28 -14 41 -31z
m-2948 -934 c55 -44 128 -100 162 -123 35 -24 74 -58 87 -76 38 -50 561 -1046
661 -1259 49 -104 106 -215 125 -245 54 -82 125 -148 200 -182 150 -70 133
-52 147 -154 16 -124 16 -219 -2 -365 -15 -132 -24 -177 -103 -520 -27 -118
-67 -290 -87 -383 -21 -92 -40 -165 -42 -163 -2 2 -11 64 -19 137 -56 517
-125 797 -281 1154 -97 220 -152 363 -196 505 -48 158 -65 237 -147 679 -39
211 -80 411 -91 445 -40 119 -185 335 -244 363 -32 15 -38 15 -69 1 -44 -21
-82 -98 -99 -199 l-13 -74 -8 70 c-13 132 -59 257 -122 341 -28 36 -30 67 -8
119 14 33 17 36 32 23 9 -8 62 -51 117 -94z m3060 66 c23 -44 19 -70 -21 -130
-54 -83 -74 -135 -99 -255 l-22 -110 -7 50 c-12 79 -24 109 -62 154 -30 35
-41 41 -75 41 -48 0 -76 -24 -155 -135 -98 -138 -134 -236 -180 -495 -41 -234
-122 -624 -159 -770 -42 -167 -82 -277 -194 -539 -171 -399 -236 -641 -286
-1073 -14 -117 -28 -229 -31 -248 -7 -34 -7 -33 -21 30 -8 36 -60 263 -114
505 -118 521 -127 589 -111 798 13 156 23 187 62 187 10 0 54 18 98 40 99 50
176 129 226 232 19 40 63 134 98 208 36 74 121 241 190 370 69 129 180 343
247 475 190 377 216 416 331 495 30 20 100 74 155 119 55 44 103 81 107 81 4
0 14 -13 23 -30z m-3208 -192 c71 -119 101 -276 83 -441 -27 -253 -81 -596
-107 -686 -40 -140 -132 -295 -202 -342 -24 -16 -46 -27 -49 -25 -2 3 14 80
37 173 58 241 72 348 77 593 5 232 20 353 74 590 17 74 33 147 37 163 3 15 8
27 12 27 4 0 21 -24 38 -52z m3282 -85 c65 -272 91 -493 89 -743 -2 -144 26
-313 97 -590 13 -52 23 -96 21 -98 -12 -11 -99 76 -143 142 -63 96 -103 196
-137 348 -90 399 -110 737 -54 908 25 76 71 160 87 160 5 0 23 -57 40 -127z
m-5145 -128 c116 -261 246 -471 522 -841 179 -239 277 -391 305 -469 41 -117
61 -480 39 -693 -14 -134 -17 -142 -50 -142 -74 0 -129 102 -164 306 -26 151
-40 190 -82 223 -39 30 -71 27 -108 -12 -41 -44 -129 -222 -173 -351 -33 -95
-35 -111 -41 -276 -11 -288 -8 -338 32 -512 28 -123 36 -177 36 -255 0 -93 -2
-101 -25 -123 -14 -13 -27 -21 -30 -18 -13 13 -170 452 -191 535 -29 115 -52
371 -79 863 -3 58 -10 193 -16 300 -6 107 -12 427 -14 710 -3 480 -16 762 -41
895 -11 54 12 15 80 -140z m7005 73 c-14 -143 -19 -258 -24 -648 -6 -414 -22
-1036 -30 -1155 -51 -731 -53 -748 -96 -912 -36 -143 -178 -525 -192 -520 -30
10 -51 58 -49 116 2 82 28 250 54 346 23 87 26 170 16 460 -8 203 -28 276
-137 493 -66 132 -121 174 -176 138 -44 -29 -72 -106 -100 -284 -17 -106 -46
-170 -101 -224 -58 -58 -75 -50 -93 46 -19 105 -24 267 -12 446 13 195 29 287
64 363 29 64 168 268 387 572 176 242 229 320 274 398 38 66 168 331 192 389
10 27 22 48 25 48 3 0 2 -33 -2 -72z m-4816 -18 c58 -65 153 -222 183 -305 13
-36 42 -159 63 -273 129 -671 223 -1000 398 -1392 111 -248 159 -410 212 -725
74 -427 84 -686 40 -980 -16 -100 -28 -160 -32 -145 -3 14 -15 99 -27 190 -63
477 -147 764 -380 1300 -314 724 -466 1194 -540 1680 -28 187 -45 526 -30 603
22 115 44 124 113 47z m2657 5 c23 -61 16 -340 -15 -578 -69 -533 -164 -845
-525 -1722 -93 -225 -192 -471 -219 -547 -87 -237 -140 -476 -182 -835 -13
-106 -25 -191 -26 -189 -9 8 -53 350 -59 451 -12 207 49 708 121 996 35 137
82 267 175 484 154 358 233 631 334 1150 85 438 86 440 169 593 79 148 157
245 191 240 14 -2 26 -16 36 -43z m100 -391 c0 -91 90 -563 129 -676 48 -140
135 -264 233 -332 31 -20 61 -49 67 -63 15 -32 58 -279 71 -408 14 -129 14
-501 0 -630 -29 -281 -93 -552 -200 -850 -141 -391 -186 -549 -226 -794 -14
-85 -30 -161 -36 -168 -14 -17 -63 -17 -81 1 -8 8 -22 65 -31 128 -32 204
-130 472 -314 854 -120 248 -148 312 -257 579 -44 109 -56 148 -52 176 2 20
46 130 97 245 319 723 452 1132 524 1609 45 302 76 435 76 329z m-2920 -159
c76 -438 143 -701 267 -1060 79 -229 241 -619 362 -875 18 -37 31 -81 31 -103
0 -41 -120 -330 -318 -762 -260 -572 -277 -616 -312 -863 -7 -46 -19 -90 -27
-98 -18 -17 -67 -18 -81 -1 -6 7 -18 62 -27 122 -29 196 -96 460 -164 646
-210 576 -265 820 -277 1239 -10 306 13 602 58 778 21 82 22 84 77 122 140 95
218 225 275 455 38 152 74 347 87 473 7 61 13 111 15 110 1 -2 16 -84 34 -183z
m-596 -1669 c12 -429 66 -759 181 -1101 24 -71 73 -215 110 -320 159 -455 189
-632 150 -886 -25 -165 -74 -275 -165 -366 -59 -59 -134 -93 -205 -93 -42 0
-44 2 -49 33 -14 86 -28 205 -56 467 -67 646 -74 779 -74 1300 -1 490 -1 491
65 955 16 115 29 214 29 219 0 5 2 7 4 5 3 -2 7 -98 10 -213z m4110 24 c114
-706 112 -1142 -13 -2367 -22 -210 -44 -391 -51 -402 -22 -43 -148 -16 -229
48 -97 77 -173 256 -193 459 -20 206 16 413 132 742 170 484 213 627 254 852
37 200 57 425 59 656 1 111 5 194 9 185 4 -10 18 -88 32 -173z m-5146 -297
c125 -212 142 -246 142 -292 0 -28 -4 -41 -12 -39 -6 2 -55 78 -107 169 -84
145 -95 171 -99 222 -2 31 -2 57 1 57 3 0 37 -53 75 -117z m6220 60 c-4 -51
-16 -77 -99 -222 -53 -90 -100 -164 -105 -165 -21 -3 -14 64 12 116 40 79 185
328 191 328 3 0 3 -26 1 -57z m17 -195 c-52 -250 -91 -409 -108 -437 l-20 -34
-21 39 c-15 29 -21 58 -21 114 0 73 1 77 51 155 28 44 65 106 83 138 18 31 35
57 38 57 2 0 2 -15 -2 -32z m-6248 -100 c94 -164 94 -162 95 -212 1 -45 -26
-141 -43 -151 -21 -13 -48 67 -89 257 -23 112 -45 209 -47 216 -3 6 -1 12 4
12 5 0 41 -55 80 -122z m2402 -67 c113 -291 157 -493 200 -921 19 -189 24
-245 36 -415 4 -44 -1 -165 -10 -270 -42 -519 -71 -788 -85 -815 -15 -28 -90
-59 -156 -66 -154 -16 -327 80 -475 264 -153 190 -218 430 -190 705 31 308 97
504 332 990 150 310 214 455 257 578 15 44 30 79 34 79 4 0 29 -58 57 -129z
m1431 117 c0 -30 128 -325 271 -623 203 -425 248 -539 299 -755 36 -153 45
-226 44 -385 -1 -138 -5 -173 -27 -257 -46 -175 -149 -333 -295 -453 -126
-105 -246 -146 -364 -125 -135 25 -144 38 -163 231 -82 846 -81 832 -61 1079
46 568 111 886 251 1233 25 61 45 86 45 55z m-2176 -1730 c3 -18 10 -73 16
-121 26 -209 104 -415 207 -542 141 -173 364 -275 538 -246 39 6 81 14 94 18
24 6 24 6 19 -53 -9 -100 -76 -277 -194 -514 -112 -225 -156 -294 -284 -440
-332 -380 -446 -614 -480 -990 -43 -461 -53 -676 -57 -1240 -5 -606 1 -754 37
-896 24 -93 74 -189 144 -276 68 -84 81 -121 80 -228 0 -74 -4 -93 -32 -152
-40 -84 -41 -136 -6 -215 14 -32 42 -103 61 -158 43 -126 46 -195 10 -264 -29
-57 -178 -271 -188 -271 -4 0 -10 16 -13 35 -4 19 -11 35 -16 35 -12 0 -9 22
-25 -165 -19 -230 -52 -312 -186 -458 -36 -40 -84 -99 -106 -132 -102 -151
-220 -218 -318 -181 -50 19 -115 86 -115 117 0 12 48 113 106 226 58 112 103
207 100 211 -24 24 -199 -225 -247 -353 -37 -96 -75 -135 -134 -135 -52 0 -75
24 -75 78 0 41 11 67 80 187 74 130 126 242 117 252 -8 7 -97 -100 -152 -182
-29 -44 -69 -113 -89 -152 -20 -40 -42 -73 -49 -73 -26 0 -57 31 -57 58 0 32
50 133 144 294 37 64 66 122 64 129 -11 34 -140 -128 -233 -296 -29 -52 -42
-65 -61 -65 -33 0 -48 32 -34 74 6 18 57 100 115 182 57 82 100 150 94 152
-32 12 -140 -95 -222 -220 -53 -82 -73 -94 -83 -53 -5 19 7 46 50 118 30 50
80 147 111 214 30 67 79 164 109 215 80 140 253 423 308 508 93 139 107 179
128 341 8 69 20 107 59 190 27 58 57 133 65 167 9 35 32 86 50 115 80 124 137
262 168 402 28 131 36 391 44 1540 4 550 10 1008 13 1018 6 14 13 9 39 -29 18
-25 35 -44 38 -41 3 3 -19 61 -49 129 -96 217 -194 451 -213 508 -15 47 -18
96 -19 350 -1 251 -5 316 -23 433 -12 76 -22 151 -22 168 0 34 12 40 102 59
193 39 340 265 363 558 l8 92 48 0 c47 0 48 -1 53 -32z m2960 -45 c11 -119 42
-246 78 -320 67 -136 198 -242 326 -262 29 -4 55 -11 59 -14 6 -7 -10 -184
-28 -303 -26 -174 -28 -245 -12 -368 18 -139 9 -230 -32 -340 -44 -116 -195
-477 -225 -536 -17 -33 -30 -64 -30 -70 0 -23 17 -7 50 48 l35 57 6 -1160 c7
-1252 8 -1264 63 -1482 28 -113 81 -243 130 -323 19 -30 53 -102 76 -160 23
-58 60 -145 82 -194 37 -80 42 -100 48 -195 8 -126 19 -150 150 -345 133 -198
224 -353 323 -546 49 -96 120 -235 159 -309 69 -130 70 -134 56 -164 l-14 -31
-63 92 c-65 94 -212 244 -219 222 -2 -6 42 -79 98 -161 117 -173 127 -197 98
-234 -26 -33 -34 -26 -96 77 -55 94 -199 288 -213 288 -21 0 -5 -39 77 -181
103 -181 123 -224 124 -267 0 -26 -5 -34 -26 -42 -14 -6 -29 -10 -34 -10 -4 0
-29 41 -55 92 -72 142 -205 328 -232 328 -7 0 -13 -2 -13 -5 0 -14 56 -127 89
-180 66 -104 124 -228 125 -267 1 -49 -26 -78 -73 -78 -45 0 -104 38 -119 77
-60 161 -82 202 -187 338 -45 58 -71 84 -73 73 -2 -9 40 -102 92 -206 112
-222 118 -249 62 -309 -31 -34 -39 -37 -99 -41 -36 -2 -81 1 -101 8 -58 19
-130 83 -176 157 -24 37 -81 111 -128 163 -133 149 -165 231 -178 455 -4 66
-10 129 -15 140 -6 18 -9 17 -19 -13 -7 -17 -15 -32 -18 -32 -4 0 -38 40 -76
88 -87 109 -138 214 -138 280 0 50 43 191 94 306 41 94 40 144 -3 222 -31 54
-34 66 -34 144 0 107 18 157 91 247 103 128 145 249 164 469 19 215 17 1095
-2 1334 -10 113 -20 257 -23 320 -16 303 -50 518 -108 671 -61 162 -184 358
-317 504 -161 177 -257 317 -365 534 -104 209 -176 407 -200 549 l-7 44 30
-16 c78 -40 231 -38 348 5 132 48 273 172 355 310 74 124 131 318 144 489 4
47 8 91 10 98 3 7 23 12 53 12 l49 0 7 -77z m-3474 -1733 c23 -52 54 -117 70
-145 66 -116 62 -38 61 -1335 -1 -688 -6 -1212 -11 -1265 -13 -118 -36 -231
-67 -330 -25 -80 -85 -209 -101 -219 -5 -3 -12 79 -15 182 -7 205 -22 329
-137 1146 -88 631 -111 826 -117 997 -7 191 3 271 52 464 59 230 199 625 215
608 5 -4 27 -51 50 -103z m3980 10 c54 -140 139 -399 165 -501 84 -331 75
-528 -70 -1509 -59 -396 -118 -883 -130 -1070 -8 -128 -16 -224 -19 -228 -6
-5 -77 159 -101 233 -70 217 -74 299 -75 1628 l-2 1158 93 195 c51 107 96 191
99 187 4 -5 22 -46 40 -93z m-2811 -175 c34 -209 45 -314 61 -576 20 -316 -8
-431 -209 -878 -51 -112 -117 -267 -148 -345 -31 -77 -60 -147 -66 -153 -24
-32 -166 89 -231 196 -79 129 -117 287 -109 446 9 173 36 457 49 529 29 149
101 312 202 456 26 36 107 142 182 235 74 94 155 201 180 237 26 38 48 61 51
55 4 -7 20 -97 38 -202z m1921 -226 c113 -150 162 -233 215 -366 71 -178 90
-300 111 -738 5 -105 3 -143 -10 -195 -23 -88 -86 -214 -144 -286 -45 -56
-169 -160 -179 -150 -21 21 -292 658 -351 826 -85 240 -87 253 -86 470 1 135
8 248 23 365 22 169 68 468 77 494 4 14 164 -181 344 -420z m-2595 -1481 c63
-125 143 -216 245 -279 28 -17 50 -33 50 -35 0 -11 -91 -371 -98 -387 -6 -15
-16 -6 -59 50 -65 86 -117 197 -143 307 -25 104 -51 416 -35 416 2 0 21 -33
40 -72z m2931 -88 c-13 -259 -77 -449 -199 -595 -17 -20 -29 -27 -35 -20 -9
10 -105 386 -100 390 2 1 29 19 61 39 85 56 171 156 220 255 52 107 62 95 53
-69z m-2906 -477 c24 -49 63 -107 95 -142 41 -43 55 -66 55 -88 0 -16 -13 -94
-30 -174 -29 -143 -62 -352 -75 -481 -4 -38 -11 -68 -16 -68 -12 0 -54 85 -73
148 -23 80 -34 265 -40 677 l-6 370 25 -80 c14 -44 43 -117 65 -162z m2929
-193 c-5 -228 -13 -447 -19 -486 -12 -88 -52 -217 -82 -264 l-22 -35 -8 75
c-18 163 -41 313 -75 480 -19 96 -35 185 -35 197 0 13 27 56 66 104 85 104
107 143 147 257 17 51 33 91 34 90 1 -2 -1 -190 -6 -418z"/>
<path d="M5175 20838 c-50 -18 -95 -57 -95 -83 0 -51 136 -114 245 -115 79 0
175 36 175 65 0 9 -21 37 -47 63 -72 71 -189 101 -278 70z"/>
<path d="M6046 20838 c-22 -5 -54 -20 -72 -33 -39 -30 -78 -90 -68 -106 3 -6
30 -22 58 -35 98 -46 233 -27 315 42 51 44 52 67 4 98 -64 42 -144 53 -237 34z"/>
<path d="M5540 20219 c-7 -11 -10 -22 -8 -23 13 -9 120 -26 166 -26 63 0 172
20 172 32 0 4 -11 15 -25 24 -20 13 -30 14 -61 4 -45 -15 -129 -15 -167 -1
-42 16 -65 13 -77 -10z"/>
<path d="M5396 19932 c-11 -19 14 -25 133 -32 122 -7 154 -1 99 20 -45 16
-223 26 -232 12z"/>
<path d="M5797 19925 c-72 -20 -69 -25 16 -25 83 0 177 16 177 31 0 13 -138 9
-193 -6z"/>
<path d="M5870 16470 c-47 -11 -77 -52 -95 -132 -20 -87 -19 -109 5 -202 25
-99 68 -173 139 -244 48 -47 89 -71 300 -175 285 -141 328 -152 380 -100 38
38 45 84 39 260 -4 112 -9 149 -27 196 -34 87 -112 165 -219 220 -117 60 -369
164 -418 172 -21 4 -46 8 -54 10 -8 1 -31 -1 -50 -5z m236 -95 c379 -157 484
-268 484 -513 0 -166 -58 -213 -203 -163 -146 51 -377 179 -454 253 -53 52
-90 136 -105 237 -14 92 -2 179 29 214 28 31 136 19 249 -28z"/>
<path d="M5375 16451 c-74 -27 -280 -114 -359 -152 -182 -87 -257 -220 -257
-459 0 -164 21 -229 79 -251 40 -16 78 -1 348 131 215 105 248 125 303 178 71
70 113 151 137 263 29 134 4 251 -60 290 -40 24 -124 24 -191 0z m188 -86 c16
-43 17 -59 7 -144 -22 -194 -44 -231 -197 -341 -153 -108 -360 -200 -453 -200
-82 0 -116 69 -107 218 7 129 34 192 117 272 54 53 91 77 201 131 74 37 157
75 184 84 70 24 186 43 210 35 12 -4 27 -27 38 -55z"/>
<path d="M5320 15752 c-30 -10 -89 -35 -130 -56 -185 -93 -303 -202 -370 -341
-58 -118 -73 -196 -67 -340 7 -187 36 -233 145 -222 31 3 65 8 74 12 9 4 -14
-25 -51 -63 -50 -50 -80 -93 -110 -153 -70 -143 -77 -250 -23 -358 38 -75 67
-95 151 -99 65 -4 84 1 326 82 274 92 318 111 350 146 18 21 20 36 19 199 0
104 -5 193 -12 217 -40 136 -145 179 -345 140 -37 -7 -64 -10 -60 -6 4 5 72
29 150 55 154 50 196 73 230 123 31 46 36 115 23 282 -23 289 -33 329 -93 373
-38 29 -134 33 -207 9z m176 -50 c12 -9 29 -32 39 -50 29 -59 47 -413 25 -494
-15 -51 -74 -100 -161 -133 -41 -15 -154 -59 -252 -97 -201 -79 -240 -87 -284
-65 -48 25 -65 74 -64 186 0 147 45 283 129 394 126 167 482 329 568 259z
m-14 -843 c29 -16 68 -74 90 -135 27 -75 28 -197 4 -271 -30 -91 -48 -102
-338 -197 -143 -47 -273 -86 -289 -86 -143 0 -185 220 -82 425 38 74 134 163
223 206 132 65 326 93 392 58z"/>
<path d="M5882 15753 c-48 -23 -72 -78 -82 -186 -36 -379 -36 -401 6 -474 30
-53 87 -87 185 -112 41 -11 99 -31 129 -45 l55 -25 -45 6 c-92 14 -223 9 -258
-10 -76 -41 -114 -158 -115 -352 -1 -139 11 -185 57 -220 34 -26 398 -153 531
-185 154 -38 215 -21 267 75 35 65 44 123 30 211 -20 126 -84 237 -189 325
-28 24 -50 45 -49 47 2 1 30 -4 63 -12 73 -17 104 -12 138 21 33 34 40 74 39
233 0 118 -4 145 -27 215 -63 192 -200 338 -402 430 -158 72 -266 91 -333 58z
m218 -60 c333 -125 501 -345 501 -655 0 -115 -15 -152 -68 -174 -48 -21 -103
-8 -256 60 -136 60 -260 106 -284 106 -31 0 -103 42 -125 72 -33 47 -37 96
-28 316 8 184 11 207 32 245 40 71 97 79 228 30z m63 -839 c193 -43 340 -163
407 -333 47 -120 35 -249 -30 -313 -31 -31 -45 -38 -78 -38 -55 0 -527 155
-571 188 -38 28 -66 85 -83 167 -19 98 17 234 82 309 l32 36 85 0 c46 0 116
-7 156 -16z"/>
<path d="M5340 14203 c-143 -24 -350 -133 -452 -240 -57 -59 -81 -123 -86
-228 -5 -108 5 -176 63 -441 87 -391 122 -507 208 -683 41 -85 64 -119 121
-176 99 -100 261 -185 352 -185 65 0 67 9 76 404 4 193 12 485 18 649 5 163
10 348 10 410 0 62 4 117 8 123 14 15 -4 198 -23 235 -54 107 -160 155 -295
132z m156 -92 c90 -41 108 -105 108 -401 1 -209 -7 -440 -29 -835 -2 -44 -7
-174 -11 -290 -7 -226 -15 -260 -59 -271 -35 -9 -87 12 -171 68 -207 138 -317
383 -429 950 -69 347 -64 463 25 593 57 83 161 151 285 186 84 25 227 24 281
0z"/>
<path d="M5914 14201 c-86 -22 -133 -76 -160 -182 -15 -60 -15 -88 1 -414 9
-192 20 -559 24 -815 8 -527 10 -540 73 -540 84 0 240 75 329 158 147 136 235
355 349 868 61 272 74 349 74 440 0 82 -3 97 -32 156 -60 121 -213 236 -396
297 -98 32 -209 46 -262 32z m248 -82 c114 -24 243 -102 306 -185 103 -133 96
-323 -29 -854 -43 -184 -73 -270 -144 -417 -73 -152 -121 -211 -234 -285 -96
-63 -145 -77 -180 -51 -13 11 -29 33 -33 49 -4 16 -12 175 -18 354 -11 375
-28 761 -36 806 -9 57 -5 290 6 380 20 163 75 214 227 214 45 0 106 -5 135
-11z"/>
<path d="M4555 6833 c-331 -221 -384 -253 -420 -253 -41 0 -66 27 -194 213
-72 103 -108 147 -122 147 -25 0 -24 -14 6 -78 54 -116 188 -296 248 -333 18
-10 46 -19 64 -19 81 0 358 185 587 393 113 103 52 77 -169 -70z"/>
<path d="M6618 6964 c12 -22 213 -196 287 -249 35 -24 123 -81 196 -126 124
-75 137 -80 178 -76 36 4 52 14 98 58 95 94 232 323 217 362 -3 10 -11 16 -17
14 -5 -1 -64 -79 -131 -172 -67 -93 -134 -178 -149 -189 l-27 -20 -77 40 c-43
22 -184 112 -313 200 -239 163 -279 187 -262 158z"/>
</g>
</svg>
